Normalized EMG Linear Envelopes
nRows=286
nColumns=4

endheader
time	 med_gas_r	  soleus_r	 tib_ant_r	
4.59073	  0.038763	  0.197166	  0.319949	
4.62399	  0.041948	  0.197152	  0.346745	
4.65726	  0.044860	  0.197086	  0.370217	
4.69052	  0.047161	  0.196717	  0.385855	
4.72379	  0.048774	  0.196228	  0.392223	
4.75706	  0.049946	  0.196367	  0.391937	
4.79032	  0.051131	  0.198193	  0.389549	
4.82359	  0.052706	  0.202495	  0.388026	
4.85685	  0.054682	  0.209271	  0.387230	
4.89012	  0.056629	  0.217577	  0.385156	
4.92339	  0.057918	  0.225763	  0.379505	
4.95665	  0.058092	  0.231959	  0.367689	
4.98992	  0.057114	  0.234664	  0.346399	
5.02319	  0.055322	  0.233274	  0.312908	
5.05645	  0.053190	  0.228295	  0.267732	
5.08972	  0.051131	  0.221046	  0.215817	
5.12298	  0.049425	  0.212975	  0.164599	
5.15625	  0.048218	  0.205041	  0.120490	
5.18952	  0.047502	  0.197603	  0.086629	
5.22278	  0.047070	  0.190844	  0.063025	
5.25605	  0.046583	  0.185229	  0.048033	
5.28931	  0.045770	  0.181486	  0.039604	
5.32258	  0.044620	  0.180094	  0.035792	
5.35585	  0.043394	  0.180785	  0.034863	
5.38911	  0.042440	  0.182553	  0.035414	
5.42238	  0.041995	  0.184177	  0.036506	
5.45565	  0.042159	  0.184818	  0.037666	
5.48891	  0.042998	  0.184290	  0.038725	
5.52218	  0.044592	  0.182911	  0.039640	
5.55544	  0.046914	  0.181159	  0.040394	
5.58871	  0.049671	  0.179376	  0.040982	
5.62198	  0.052331	  0.177649	  0.041410	
5.65524	  0.054396	  0.175848	  0.041692	
5.68851	  0.055692	  0.173774	  0.041816	
5.72177	  0.056408	  0.171368	  0.041759	
5.75504	  0.056826	  0.168860	  0.041529	
5.78831	  0.057028	  0.166708	  0.041212	
5.82157	  0.056860	  0.165318	  0.040954	
5.85484	  0.056151	  0.164738	  0.040872	
5.8881	  0.054922	  0.164631	  0.040980	
5.92137	  0.053363	  0.164562	  0.041199	
5.95464	  0.051665	  0.164329	  0.041429	
5.9879	  0.049940	  0.164018	  0.041597	
6.02117	  0.048311	  0.163781	  0.041656	
6.05444	  0.047019	  0.163653	  0.041569	
6.0877	  0.046377	  0.163623	  0.041327	
6.12097	  0.046539	  0.163815	  0.040999	
6.15423	  0.047313	  0.164454	  0.040733	
6.1875	  0.048225	  0.165564	  0.040682	
6.22077	  0.048842	  0.166741	  0.040914	
6.25403	  0.049094	  0.167345	  0.041359	
6.2873	  0.049313	  0.167013	  0.041850	
6.32056	  0.049938	  0.165988	  0.042205	
6.35383	  0.051092	  0.164918	  0.042281	
6.3871	  0.052414	  0.164277	  0.041985	
6.42036	  0.053275	  0.163985	  0.041279	
6.45363	  0.053217	  0.163568	  0.040198	
6.4869	  0.052274	  0.162667	  0.038868	
6.52016	  0.050914	  0.161385	  0.037495	
6.55343	  0.049720	  0.160211	  0.036307	
6.58669	  0.049051	  0.159682	  0.035499	
6.61996	  0.048931	  0.160109	  0.035204	
6.65323	  0.049154	  0.161467	  0.035473	
6.68649	  0.049451	  0.163437	  0.036269	
6.71976	  0.049628	  0.165548	  0.037479	
6.75302	  0.049633	  0.167433	  0.038942	
6.78629	  0.049570	  0.169050	  0.040479	
6.81956	  0.049639	  0.170694	  0.041919	
6.85282	  0.049997	  0.172763	  0.043123	
6.88609	  0.050627	  0.175495	  0.044024	
6.91935	  0.051354	  0.178860	  0.044660	
6.95262	  0.051992	  0.182615	  0.045122	
6.98589	  0.052501	  0.186413	  0.045452	
7.01915	  0.053020	  0.189895	  0.045581	
7.05242	  0.053760	  0.192833	  0.045401	
7.08569	  0.054863	  0.195319	  0.044908	
7.11895	  0.056299	  0.197848	  0.044288	
7.15222	  0.057878	  0.201162	  0.043840	
7.18548	  0.059359	  0.205872	  0.043822	
7.21875	  0.060592	  0.212123	  0.044320	
7.25202	  0.061574	  0.219508	  0.045231	
7.28528	  0.062387	  0.227250	  0.046325	
7.31855	  0.063083	  0.234511	  0.047355	
7.35181	  0.063633	  0.240725	  0.048169	
7.38508	  0.063987	  0.245940	  0.048802	
7.41835	  0.064173	  0.250989	  0.049499	
7.45161	  0.064338	  0.257139	  0.050617	
7.48488	  0.064697	  0.265245	  0.052425	
7.51815	  0.065420	  0.274948	  0.054939	
7.55141	  0.066563	  0.284646	  0.057953	
7.58468	  0.068075	  0.292328	  0.061260	
7.61794	  0.069845	  0.296624	  0.064834	
7.65121	  0.071708	  0.297308	  0.068734	
7.68448	  0.073433	  0.295034	  0.072737	
7.71774	  0.074742	  0.290746	  0.076101	
7.75101	  0.075406	  0.285280	  0.077806	
7.78427	  0.075356	  0.279313	  0.077192	
7.81754	  0.074698	  0.273519	  0.074473	
7.85081	  0.073627	  0.268698	  0.070688	
7.88407	  0.072342	  0.265697	  0.067166	
7.91734	  0.071018	  0.265061	  0.064967	
7.9506	  0.069818	  0.266647	  0.064638	
7.98387	  0.068888	  0.269651	  0.066250	
8.01714	  0.068293	  0.273152	  0.069446	
8.0504	  0.067961	  0.276696	  0.073430	
8.08367	  0.067689	  0.280340	  0.077043	
8.11694	  0.067242	  0.284171	  0.079153	
8.1502	  0.066498	  0.287920	  0.079217	
8.18347	  0.065544	  0.291101	  0.077630	
8.21673	  0.064661	  0.293445	  0.075574	
8.25	  0.064182	  0.295037	  0.074426	
8.28327	  0.064299	  0.296056	  0.075076	
8.31653	  0.064955	  0.296578	  0.077492	
8.3498	  0.065906	  0.296835	  0.080697	
8.38306	  0.066898	  0.297594	  0.083208	
8.41633	  0.067800	  0.300048	  0.083782	
8.4496	  0.068601	  0.305176	  0.082099	
8.48286	  0.069325	  0.313139	  0.078912	
8.51613	  0.069951	  0.323202	  0.075603	
8.5494	  0.070405	  0.334062	  0.073485	
8.58266	  0.070607	  0.344227	  0.073301	
8.61593	  0.070525	  0.352240	  0.075032	
8.64919	  0.070188	  0.356782	  0.077915	
8.68246	  0.069627	  0.356695	  0.080648	
8.71573	  0.068814	  0.351112	  0.081864	
8.74899	  0.067703	  0.339875	  0.080764	
8.78226	  0.066374	  0.324135	  0.077496	
8.81552	  0.065128	  0.306585	  0.072967	
8.84879	  0.064383	  0.290803	  0.068258	
8.88206	  0.064400	  0.279840	  0.064109	
8.91532	  0.065098	  0.274909	  0.060802	
8.94859	  0.066132	  0.275054	  0.058358	
8.98185	  0.067158	  0.278031	  0.056763	
9.01512	  0.068061	  0.281779	  0.056018	
9.04839	  0.068947	  0.285504	  0.056042	
9.08165	  0.069964	  0.289743	  0.056598	
9.11492	  0.071157	  0.295579	  0.057333	
9.14819	  0.072484	  0.303605	  0.057942	
9.18145	  0.073905	  0.313311	  0.058302	
9.21472	  0.075381	  0.323118	  0.058469	
9.24798	  0.076785	  0.330939	  0.058551	
9.28125	  0.077917	  0.334888	  0.058590	
9.31452	  0.078669	  0.333848	  0.058544	
9.34778	  0.079176	  0.327801	  0.058353	
9.38105	  0.079701	  0.317916	  0.057982	
9.41431	  0.080338	  0.306365	  0.057416	
9.44758	  0.080850	  0.295760	  0.056668	
9.48085	  0.080830	  0.288321	  0.055819	
9.51411	  0.080020	  0.285147	  0.055063	
9.54738	  0.078496	  0.285985	  0.054642	
9.58065	  0.076615	  0.289568	  0.054706	
9.61391	  0.074819	  0.294239	  0.055214	
9.64718	  0.073459	  0.298555	  0.055991	
9.68044	  0.072706	  0.301686	  0.056935	
9.71371	  0.072565	  0.303500	  0.058176	
9.74698	  0.072931	  0.304292	  0.060027	
9.78024	  0.073622	  0.304406	  0.062767	
9.81351	  0.074391	  0.304129	  0.066481	
9.84677	  0.075005	  0.303967	  0.071060	
9.88004	  0.075355	  0.304861	  0.076244	
9.91331	  0.075508	  0.307844	  0.081568	
9.94657	  0.075575	  0.313285	  0.086289	
9.97984	  0.075521	  0.320448	  0.089577	
10.0131	  0.075116	  0.327858	  0.091002	
10.0464	  0.074121	  0.334154	  0.090931	
10.0796	  0.072556	  0.338653	  0.090378	
10.1129	  0.070790	  0.341245	  0.090350	
10.1462	  0.069338	  0.341942	  0.091230	
10.1794	  0.068522	  0.340643	  0.092742	
10.2127	  0.068271	  0.337380	  0.094466	
10.246	  0.068242	  0.332758	  0.096361	
10.2792	  0.068178	  0.328035	  0.098767	
10.3125	  0.068156	  0.324570	  0.101904	
10.3458	  0.068519	  0.323013	  0.105371	
10.379	  0.069549	  0.322946	  0.108138	
10.4123	  0.071192	  0.323315	  0.109076	
10.4456	  0.073058	  0.323249	  0.107669	
10.4788	  0.074686	  0.322544	  0.104445	
10.5121	  0.075833	  0.321464	  0.100795	
10.5454	  0.076564	  0.320239	  0.098178	
10.5786	  0.077113	  0.318821	  0.097179	
10.6119	  0.077684	  0.317058	  0.097149	
10.6452	  0.078358	  0.314947	  0.096804	
10.6784	  0.079084	  0.312607	  0.095335	
10.7117	  0.079710	  0.310074	  0.093114	
10.745	  0.080025	  0.307301	  0.091389	
10.7782	  0.079866	  0.304424	  0.091298	
10.8115	  0.079198	  0.301918	  0.093023	
10.8448	  0.078111	  0.300284	  0.095698	
10.878	  0.076712	  0.299528	  0.098005	
10.9113	  0.075081	  0.299047	  0.098967	
10.9446	  0.073313	  0.298134	  0.098380	
10.9778	  0.071549	  0.296584	  0.096748	
11.0111	  0.069926	  0.294695	  0.094857	
11.0444	  0.068518	  0.292688	  0.093287	
11.0776	  0.067357	  0.290215	  0.092068	
11.1109	  0.066488	  0.286564	  0.090635	
11.1442	  0.065972	  0.281346	  0.088158	
11.1774	  0.065827	  0.274939	  0.084104	
11.2107	  0.065989	  0.268266	  0.078637	
11.244	  0.066318	  0.262168	  0.072551	
11.2772	  0.066613	  0.257016	  0.066827	
11.3105	  0.066651	  0.252844	  0.062187	
11.3437	  0.066300	  0.249781	  0.058944	
11.377	  0.065682	  0.248329	  0.057073	
11.4103	  0.065223	  0.249218	  0.056355	
11.4435	  0.065440	  0.252899	  0.056449	
11.4768	  0.066600	  0.259041	  0.056977	
11.5101	  0.068542	  0.266449	  0.057618	
11.5433	  0.070831	  0.273543	  0.058214	
11.5766	  0.073078	  0.279104	  0.058823	
11.6099	  0.075104	  0.282765	  0.059700	
11.6431	  0.076813	  0.284905	  0.061192	
11.6764	  0.077987	  0.286049	  0.063535	
11.7097	  0.078271	  0.286273	  0.066578	
11.7429	  0.077391	  0.285132	  0.069638	
11.7762	  0.075387	  0.282184	  0.071715	
11.8095	  0.072629	  0.277625	  0.072021	
11.8427	  0.069648	  0.272465	  0.070482	
11.876	  0.066925	  0.268066	  0.067808	
11.9093	  0.064762	  0.265463	  0.065118	
11.9425	  0.063243	  0.264955	  0.063430	
11.9758	  0.062260	  0.266154	  0.063371	
12.0091	  0.061608	  0.268300	  0.065134	
12.0423	  0.061121	  0.270594	  0.068505	
12.0756	  0.060756	  0.272473	  0.072821	
12.1089	  0.060571	  0.273763	  0.076938	
12.1421	  0.060636	  0.274587	  0.079488	
12.1754	  0.060959	  0.274987	  0.079438	
12.2087	  0.061457	  0.274532	  0.076627	
12.2419	  0.061994	  0.272355	  0.071856	
12.2752	  0.062468	  0.267765	  0.066419	
12.3085	  0.062900	  0.260972	  0.061465	
12.3417	  0.063449	  0.253222	  0.057600	
12.375	  0.064280	  0.246149	  0.054884	
12.4083	  0.065392	  0.240847	  0.053070	
12.4415	  0.066556	  0.237407	  0.051837	
12.4748	  0.067472	  0.235176	  0.050936	
12.5081	  0.067987	  0.233352	  0.050219	
12.5413	  0.068136	  0.231314	  0.049641	
12.5746	  0.067960	  0.228550	  0.049236	
12.6079	  0.067349	  0.224543	  0.049073	
12.6411	  0.066135	  0.218992	  0.049182	
12.6744	  0.064369	  0.212278	  0.049506	
12.7077	  0.062443	  0.205666	  0.049924	
12.7409	  0.060873	  0.200859	  0.050324	
12.7742	  0.059913	  0.199105	  0.050619	
12.8075	  0.059386	  0.200513	  0.050707	
12.8407	  0.058888	  0.204065	  0.050458	
12.874	  0.058182	  0.208273	  0.049805	
12.9073	  0.057392	  0.211930	  0.048853	
12.9405	  0.056850	  0.214497	  0.047830	
12.9738	  0.056757	  0.216100	  0.046916	
13.0071	  0.056980	  0.217316	  0.046104	
13.0403	  0.057156	  0.218876	  0.045263	
13.0736	  0.056958	  0.221199	  0.044331	
13.1069	  0.056314	  0.223958	  0.043428	
13.1401	  0.055422	  0.226064	  0.042794	
13.1734	  0.054605	  0.226322	  0.042622	
13.2067	  0.054123	  0.224318	  0.042967	
13.2399	  0.054069	  0.220785	  0.043786	
13.2732	  0.054387	  0.217098	  0.045010	
13.3065	  0.054974	  0.214366	  0.046550	
13.3397	  0.055780	  0.212860	  0.048220	
13.373	  0.056798	  0.212071	  0.049707	
13.4062	  0.057947	  0.211134	  0.050658	
13.4395	  0.058958	  0.209285	  0.050871	
13.4728	  0.059411	  0.206210	  0.050434	
13.506	  0.058947	  0.202205	  0.049680	
13.5393	  0.057500	  0.198025	  0.048970	
13.5726	  0.055375	  0.194473	  0.048504	
13.6058	  0.053098	  0.192008	  0.048285	
13.6391	  0.051137	  0.190650	  0.048232	
13.6724	  0.049659	  0.190164	  0.048297	
13.7056	  0.048487	  0.190289	  0.048471	
13.7389	  0.047276	  0.190837	  0.048701	
13.7722	  0.045814	  0.191692	  0.048854	
13.8054	  0.044225	  0.192750	  0.048777	
13.8387	  0.042936	  0.193873	  0.048423	
13.872	  0.042431	  0.194902	  0.047878	
13.9052	  0.042966	  0.195764	  0.047271	
13.9385	  0.044405	  0.196588	  0.046640	
13.9718	  0.046266	  0.197674	  0.045905	
14.005	  0.047928	  0.199301	  0.044970	
14.0383	  0.048914	  0.201496	  0.043831	
14.0716	  0.049095	  0.203939	  0.042600	
